<?xml version="1.0" encoding="utf-8"?>
<!-- Generator: Adobe Illustrator 18.1.1, SVG Export Plug-In . SVG Version: 6.00 Build 0)  -->
<svg version="1.1" id="Layer_1" xmlns="http://www.w3.org/2000/svg" xmlns:xlink="http://www.w3.org/1999/xlink" x="0px" y="0px"
	 viewBox="293.5 383.5 25 25" enable-background="new 293.5 383.5 25 25" xml:space="preserve">
<g>
	<path fill="none" d="M308.8,390.6c-1.2,0-2.3-0.1-3.5,0c-0.9,0.1-1.8,0.3-2.5,0.8c-0.9,0.7-1.4,1.7-1.1,2.9c0.2,1.1,1,1.7,2.1,1.9
		c0.3,0.1,0.5,0.1,0.9,0.1c-0.2,0.5,0,1.1,0.3,1.6c-0.1,0-0.2,0-0.3,0c-1,0.1-2,0.2-2.9,0.8c-0.7,0.5-1.2,1.1-1.1,2
		c0.1,0.9,0.7,1.4,1.4,1.8c1,0.4,2,0.4,3,0.3c0.7-0.1,1.6-0.3,2.2-0.9c1.2-1,1.5-2.8,0.2-3.9c-0.3-0.3-0.7-0.6-1.1-1
		c-0.5-0.4-0.5-0.7-0.1-1.2c0.2-0.2,0.4-0.3,0.6-0.5c1.1-1,1.2-2.5,0.1-3.6c-0.1-0.1-0.1-0.2-0.3-0.3
		C308,391.2,308.4,391,308.8,390.6z M307.4,400c0,0,0,0,0.1,0.1c0.1,0.8-0.3,1.5-1.1,1.8c-0.4,0.1-0.8,0.2-1.2,0.3
		c-0.7-0.1-1.4-0.2-1.9-0.5s-0.9-0.9-0.8-1.6c0-0.7,0.4-1.1,1-1.4c0.7-0.3,1.5-0.5,2.2-0.4C306.1,398.3,307.3,399.4,307.4,400z
		 M305.5,395.5c-0.7,0.2-1.4,0-1.8-0.7c-0.5-0.7-0.7-1.6-0.5-2.5c0.1-0.5,0.4-1,1-1.1s1.1,0,1.5,0.4c0.6,0.6,0.8,1.4,0.9,2.1
		C306.5,394.8,306.3,395.3,305.5,395.5z"/>
	<polygon fill="none" points="311.3,394 310.3,394 310.3,395.5 308.7,395.5 308.7,396.5 310.3,396.5 310.3,398.1 311.3,398.1 
		311.3,396.5 312.9,396.5 312.9,395.5 311.3,395.5 	"/>
	<path fill="#2BA6CB" d="M306,383.7c-6.7,0-12.3,5.5-12.3,12.3s5.5,12.3,12.3,12.3s12.3-5.5,12.3-12.3S312.7,383.7,306,383.7z
		 M307.3,391.6c1,1.1,1,2.7-0.1,3.6c-0.2,0.2-0.4,0.3-0.6,0.5c-0.4,0.5-0.4,0.8,0.1,1.2c0.3,0.3,0.7,0.6,1.1,1
		c1.3,1.1,1,2.9-0.2,3.9c-0.6,0.5-1.4,0.8-2.2,0.9c-1,0.1-2,0.1-3-0.3c-0.7-0.3-1.4-0.9-1.4-1.8c-0.1-0.9,0.3-1.5,1.1-2
		c0.9-0.6,1.8-0.7,2.9-0.8c0.1,0,0.1,0,0.3,0c-0.3-0.5-0.5-1-0.3-1.6c-0.3,0-0.6,0-0.9-0.1c-1.2-0.2-1.9-0.8-2.1-1.9
		c-0.3-1.2,0.2-2.1,1.1-2.9c0.7-0.5,1.6-0.7,2.5-0.8c1.2-0.1,2.3,0,3.5,0c-0.4,0.5-0.8,0.7-1.8,0.7
		C307.2,391.4,307.2,391.4,307.3,391.6z M312.9,396.5h-1.6v1.6h-1v-1.6h-1.6v-1h1.6V394h1v1.6h1.6V396.5z"/>
	<path fill="#2BA6CB" d="M303.4,398.7c-0.5,0.3-1,0.7-1,1.4c-0.1,0.7,0.3,1.2,0.8,1.6s1.2,0.5,1.9,0.5c0.4-0.1,0.8-0.1,1.2-0.3
		c0.8-0.3,1.2-1,1.1-1.8c-0.1-0.1-0.1-0.1-0.1-0.1c-0.1-0.5-1.3-1.6-1.8-1.7C304.9,398.2,304.1,398.3,303.4,398.7z"/>
	<path fill="#2BA6CB" d="M304.2,391.2c-0.5,0.1-0.8,0.5-1,1.1c-0.2,1,0.1,1.8,0.5,2.5c0.4,0.7,1.1,0.9,1.8,0.7c0.7-0.2,1-0.6,1-1.8
		c-0.1-0.7-0.3-1.5-0.9-2.1C305.3,391.2,304.7,391,304.2,391.2z"/>
</g>
</svg>
