<?xml version="1.0" encoding="utf-8"?>
<!-- Generator: Adobe Illustrator 18.0.0, SVG Export Plug-In . SVG Version: 6.00 Build 0)  -->
<!DOCTYPE svg PUBLIC "-//W3C//DTD SVG 1.1//EN" "http://www.w3.org/Graphics/SVG/1.1/DTD/svg11.dtd">
<svg version="1.1" id="Layer_1" xmlns="http://www.w3.org/2000/svg" xmlns:xlink="http://www.w3.org/1999/xlink" x="0px" y="0px"
	 viewBox="0 0 90 90" enable-background="new 0 0 90 90" xml:space="preserve">
<g>
	<path fill="#FFFFFF" d="M44.9,5.1C23,5.1,5.2,22.9,5.2,44.9c0,22,17.8,39.8,39.8,39.8c22,0,39.8-17.8,39.8-39.8
		C84.7,22.9,66.9,5.1,44.9,5.1z M28,32.3h33.8c1.8,0,0.9,1.8-0.1,2.3c-1,0.6-14.5,8.4-15,8.7c-0.5,0.3-1.2,0.4-1.8,0.4
		c-0.7,0-1.3-0.1-1.8-0.4c-0.5-0.3-14-8.1-15-8.7C27.1,34.1,26.2,32.3,28,32.3z M63,55.3c0,0.9-1.1,2.1-2,2.1h-32
		c-0.9,0-2-1.2-2-2.1c0,0,0-15.5,0-15.9c0-0.4,0-0.9,0.8-0.5c1.1,0.6,14.7,8.3,15.4,8.7c0.7,0.4,1.2,0.4,1.8,0.4
		c0.7,0,1.1-0.1,1.8-0.4c0.7-0.4,14.3-8.1,15.4-8.7c0.8-0.4,0.8,0.1,0.8,0.5C63,39.9,63,55.3,63,55.3z"/>
</g>
</svg>
