<?xml version="1.0" encoding="utf-8"?>
<!-- Generator: Adobe Illustrator 18.0.0, SVG Export Plug-In . SVG Version: 6.00 Build 0)  -->
<!DOCTYPE svg PUBLIC "-//W3C//DTD SVG 1.1//EN" "http://www.w3.org/Graphics/SVG/1.1/DTD/svg11.dtd">
<svg version="1.1" id="Layer_1" xmlns="http://www.w3.org/2000/svg" xmlns:xlink="http://www.w3.org/1999/xlink" x="0px" y="0px"
	 viewBox="0 0 90 90" enable-background="new 0 0 90 90" xml:space="preserve">
<path fill="#FFFFFF" d="M44.8,4.1C22.8,4.1,4.9,22,4.9,44c0,22,17.9,39.9,39.9,39.9c22,0,39.9-17.9,39.9-39.9
	C84.7,22,66.8,4.1,44.8,4.1z M61,36.8c0,0.3,0,0.7,0,1c0,10.4-7.9,22.4-22.4,22.4c-4.4,0-8.6-1.3-12-3.5c0.6,0.1,1.2,0.1,1.9,0.1
	c3.7,0,7.1-1.3,9.8-3.4c-3.4-0.1-6.3-2.3-7.3-5.5c0.5,0.1,1,0.1,1.5,0.1c0.7,0,1.4-0.1,2.1-0.3c-3.6-0.7-6.3-3.9-6.3-7.7
	c0,0,0-0.1,0-0.1c1.1,0.6,2.3,0.9,3.6,1c-2.1-1.4-3.5-3.8-3.5-6.5c0-1.4,0.4-2.8,1.1-3.9c3.9,4.8,9.7,7.9,16.2,8.2
	c-0.1-0.6-0.2-1.2-0.2-1.8c0-4.3,3.5-7.9,7.9-7.9c2.3,0,4.3,1,5.7,2.5c1.8-0.4,3.5-1,5-1.9c-0.6,1.8-1.8,3.4-3.5,4.3
	c1.6-0.2,3.1-0.6,4.5-1.2C63.9,34.3,62.6,35.7,61,36.8z"/>
</svg>
