<?xml version="1.0" encoding="utf-8"?>
<!-- Generator: Adobe Illustrator 18.1.1, SVG Export Plug-In . SVG Version: 6.00 Build 0)  -->
<svg version="1.1" id="Layer_1" xmlns="http://www.w3.org/2000/svg" xmlns:xlink="http://www.w3.org/1999/xlink" x="0px" y="0px"
	 viewBox="293.5 383.5 25 25" enable-background="new 293.5 383.5 25 25" xml:space="preserve">
<path fill="#2BA6CB" d="M306,383.6c-6.8,0-12.4,5.6-12.4,12.4s5.6,12.4,12.4,12.4s12.4-5.6,12.4-12.4S312.8,383.6,306,383.6z
	 M311,393.8c0,0.1,0,0.2,0,0.3c0,3.2-2.5,7-7,7c-1.4,0-2.7-0.4-3.7-1.1c0.2,0,0.4,0,0.6,0c1.1,0,2.2-0.4,3-1.1c-1.1,0-2-0.7-2.3-1.7
	c0.2,0,0.3,0,0.5,0c0.2,0,0.4,0,0.7-0.1c-1.1-0.2-2-1.2-2-2.4v0c0.3,0.2,0.7,0.3,1.1,0.3c-0.7-0.4-1.1-1.2-1.1-2
	c0-0.4,0.1-0.9,0.3-1.2c1.2,1.5,3,2.5,5,2.5c0-0.2-0.1-0.4-0.1-0.6c0-1.3,1.1-2.5,2.5-2.5c0.7,0,1.3,0.3,1.8,0.8
	c0.6-0.1,1.1-0.3,1.6-0.6c-0.2,0.6-0.6,1.1-1.1,1.3c0.5-0.1,1-0.2,1.4-0.4C311.9,393,311.5,393.4,311,393.8z"/>
</svg>
